# xmcd
#
# Track frame offsets:
# 150
# 23578
# 52525
# 74889
# 85985
# 109371
# 133253
# 154426
# 175358
# 197830
#
# Disc length: 3121 seconds
#
#
# Revision: 0
# Processed by: cddbd v1.5.2PL0 Copyright (c) Steve Scherf et al.
# Submitted via: FreeRIP 2.944 
#
DISCID=900c2f0a
DTITLE=MARC REECE  - Teach me tonight
DYEAR=1900
DGENRE=Blues
TTITLE0=01- Doing 100
TTITLE1=02-Teach me tonight
TTITLE2=03-Love to ride
TTITLE3=04-Okie Dokie Stomp
TTITLE4=05-Getting tired of waiting
TTITLE5=06-Rude mood
TTITLE6=07-Couldn't stand the weather
TTITLE7=08-Bullfrog blues
TTITLE8=09-Trouble man
TTITLE9=10-Empty arms
EXTD=
EXTT0=
EXTT1=
EXTT2=
EXTT3=
EXTT4=
EXTT5=
EXTT6=
EXTT7=
EXTT8=
EXTT9=
PLAYORDER=
